<mxfile host="app.diagrams.net" modified="2023-05-23T10:54:51.388Z" agent="Mozilla/5.0 (Windows NT 10.0; Win64; x64) AppleWebKit/537.36 (KHTML, like Gecko) Chrome/113.0.0.0 Safari/537.36" etag="s-DtQLBtY5ERbHwC0KGM" version="21.3.2" type="device">
  <diagram id="UISaML37r__2dC50zuFC" name="p3">
    <mxGraphModel dx="3685" dy="980" grid="1" gridSize="10" guides="1" tooltips="1" connect="1" arrows="1" fold="1" page="1" pageScale="1" pageWidth="850" pageHeight="1100" math="0" shadow="0">
      <root>
        <mxCell id="0" />
        <mxCell id="1" parent="0" />
        <mxCell id="klKYqqr75x3pO2ADz1AA-1" value="Action &lt;&lt;interface&gt;&gt;" style="swimlane;fontStyle=1;align=center;verticalAlign=top;childLayout=stackLayout;horizontal=1;startSize=26;horizontalStack=0;resizeParent=1;resizeParentMax=0;resizeLast=0;collapsible=1;marginBottom=0;hachureGap=4;pointerEvents=0;sketch=0;fontColor=#5AA9E6;strokeColor=#FF6392;fillColor=#FFE45E;" parent="1" vertex="1">
          <mxGeometry x="365" y="410" width="280" height="80" as="geometry" />
        </mxCell>
        <mxCell id="klKYqqr75x3pO2ADz1AA-3" value="" style="line;strokeWidth=1;fillColor=none;align=left;verticalAlign=middle;spacingTop=-1;spacingLeft=3;spacingRight=3;rotatable=0;labelPosition=right;points=[];portConstraint=eastwest;" parent="klKYqqr75x3pO2ADz1AA-1" vertex="1">
          <mxGeometry y="26" width="280" height="8" as="geometry" />
        </mxCell>
        <mxCell id="klKYqqr75x3pO2ADz1AA-4" value="+executeAction(EventScheduler): void" style="text;strokeColor=none;fillColor=none;align=left;verticalAlign=top;spacingLeft=4;spacingRight=4;overflow=hidden;rotatable=0;points=[[0,0.5],[1,0.5]];portConstraint=eastwest;" parent="klKYqqr75x3pO2ADz1AA-1" vertex="1">
          <mxGeometry y="34" width="280" height="46" as="geometry" />
        </mxCell>
        <mxCell id="klKYqqr75x3pO2ADz1AA-5" value="Activity" style="swimlane;fontStyle=1;align=center;verticalAlign=top;childLayout=stackLayout;horizontal=1;startSize=26;horizontalStack=0;resizeParent=1;resizeParentMax=0;resizeLast=0;collapsible=1;marginBottom=0;hachureGap=4;pointerEvents=0;sketch=0;fontColor=#5AA9E6;strokeColor=#FF6392;fillColor=#FFE45E;" parent="1" vertex="1">
          <mxGeometry x="160" y="570" width="280" height="140" as="geometry" />
        </mxCell>
        <mxCell id="klKYqqr75x3pO2ADz1AA-6" value="-entity: Entity&#xa;-world: WorldModel&#xa;-imageStore: ImageStore" style="text;strokeColor=none;fillColor=none;align=left;verticalAlign=top;spacingLeft=4;spacingRight=4;overflow=hidden;rotatable=0;points=[[0,0.5],[1,0.5]];portConstraint=eastwest;" parent="klKYqqr75x3pO2ADz1AA-5" vertex="1">
          <mxGeometry y="26" width="280" height="64" as="geometry" />
        </mxCell>
        <mxCell id="klKYqqr75x3pO2ADz1AA-7" value="" style="line;strokeWidth=1;fillColor=none;align=left;verticalAlign=middle;spacingTop=-1;spacingLeft=3;spacingRight=3;rotatable=0;labelPosition=right;points=[];portConstraint=eastwest;" parent="klKYqqr75x3pO2ADz1AA-5" vertex="1">
          <mxGeometry y="90" width="280" height="8" as="geometry" />
        </mxCell>
        <mxCell id="klKYqqr75x3pO2ADz1AA-8" value="+executeAction(EventScheduler): void" style="text;strokeColor=none;fillColor=none;align=left;verticalAlign=top;spacingLeft=4;spacingRight=4;overflow=hidden;rotatable=0;points=[[0,0.5],[1,0.5]];portConstraint=eastwest;" parent="klKYqqr75x3pO2ADz1AA-5" vertex="1">
          <mxGeometry y="98" width="280" height="42" as="geometry" />
        </mxCell>
        <mxCell id="klKYqqr75x3pO2ADz1AA-9" value="Animation" style="swimlane;fontStyle=1;align=center;verticalAlign=top;childLayout=stackLayout;horizontal=1;startSize=26;horizontalStack=0;resizeParent=1;resizeParentMax=0;resizeLast=0;collapsible=1;marginBottom=0;hachureGap=4;pointerEvents=0;sketch=0;fontColor=#5AA9E6;strokeColor=#FF6392;fillColor=#FFE45E;" parent="1" vertex="1">
          <mxGeometry x="600" y="570" width="280" height="140" as="geometry" />
        </mxCell>
        <mxCell id="klKYqqr75x3pO2ADz1AA-10" value="-entity: Entity&#xa;-repeatCount: int" style="text;strokeColor=none;fillColor=none;align=left;verticalAlign=top;spacingLeft=4;spacingRight=4;overflow=hidden;rotatable=0;points=[[0,0.5],[1,0.5]];portConstraint=eastwest;" parent="klKYqqr75x3pO2ADz1AA-9" vertex="1">
          <mxGeometry y="26" width="280" height="64" as="geometry" />
        </mxCell>
        <mxCell id="klKYqqr75x3pO2ADz1AA-11" value="" style="line;strokeWidth=1;fillColor=none;align=left;verticalAlign=middle;spacingTop=-1;spacingLeft=3;spacingRight=3;rotatable=0;labelPosition=right;points=[];portConstraint=eastwest;" parent="klKYqqr75x3pO2ADz1AA-9" vertex="1">
          <mxGeometry y="90" width="280" height="8" as="geometry" />
        </mxCell>
        <mxCell id="klKYqqr75x3pO2ADz1AA-12" value="+executeAction(EventScheduler): void&#xa;" style="text;strokeColor=none;fillColor=none;align=left;verticalAlign=top;spacingLeft=4;spacingRight=4;overflow=hidden;rotatable=0;points=[[0,0.5],[1,0.5]];portConstraint=eastwest;" parent="klKYqqr75x3pO2ADz1AA-9" vertex="1">
          <mxGeometry y="98" width="280" height="42" as="geometry" />
        </mxCell>
        <mxCell id="80gzapR56s2BgOyHMlyC-1" value="Entity &lt;&lt;interface&gt;&gt;" style="swimlane;fontStyle=1;align=center;verticalAlign=top;childLayout=stackLayout;horizontal=1;startSize=26;horizontalStack=0;resizeParent=1;resizeParentMax=0;resizeLast=0;collapsible=1;marginBottom=0;hachureGap=4;pointerEvents=0;sketch=0;fontColor=#5AA9E6;strokeColor=#FF6392;fillColor=#FFE45E;" parent="1" vertex="1">
          <mxGeometry x="-705" y="670" width="200" height="180" as="geometry" />
        </mxCell>
        <mxCell id="80gzapR56s2BgOyHMlyC-2" value="&#xa;" style="text;strokeColor=none;fillColor=none;align=left;verticalAlign=top;spacingLeft=4;spacingRight=4;overflow=hidden;rotatable=0;points=[[0,0.5],[1,0.5]];portConstraint=eastwest;" parent="80gzapR56s2BgOyHMlyC-1" vertex="1">
          <mxGeometry y="26" width="200" height="34" as="geometry" />
        </mxCell>
        <mxCell id="80gzapR56s2BgOyHMlyC-3" value="" style="line;strokeWidth=1;fillColor=none;align=left;verticalAlign=middle;spacingTop=-1;spacingLeft=3;spacingRight=3;rotatable=0;labelPosition=right;points=[];portConstraint=eastwest;" parent="80gzapR56s2BgOyHMlyC-1" vertex="1">
          <mxGeometry y="60" width="200" height="8" as="geometry" />
        </mxCell>
        <mxCell id="80gzapR56s2BgOyHMlyC-4" value="+getId(): String&#xa;+getPosition(): Point&#xa;+setPosition(): void&#xa;+getCurrentImage(): PImage&#xa;+nextImage(): void&#xa;+getImageIndex(): int&#xa;+log(): String &lt;&lt;default&gt;&gt;" style="text;strokeColor=none;fillColor=none;align=left;verticalAlign=top;spacingLeft=4;spacingRight=4;overflow=hidden;rotatable=0;points=[[0,0.5],[1,0.5]];portConstraint=eastwest;" parent="80gzapR56s2BgOyHMlyC-1" vertex="1">
          <mxGeometry y="68" width="200" height="112" as="geometry" />
        </mxCell>
        <mxCell id="80gzapR56s2BgOyHMlyC-5" value="House" style="swimlane;fontStyle=1;align=center;verticalAlign=top;childLayout=stackLayout;horizontal=1;startSize=26;horizontalStack=0;resizeParent=1;resizeParentMax=0;resizeLast=0;collapsible=1;marginBottom=0;hachureGap=4;pointerEvents=0;sketch=0;fontColor=#5AA9E6;strokeColor=#FF6392;fillColor=#FFE45E;" parent="1" vertex="1">
          <mxGeometry x="-970" y="410" width="180" height="220" as="geometry" />
        </mxCell>
        <mxCell id="80gzapR56s2BgOyHMlyC-6" value="-id: String&#xa;-position: Point&#xa;-images: List&lt;PImage&gt;&#xa;-imageIndex: int&#xa;" style="text;strokeColor=none;fillColor=none;align=left;verticalAlign=top;spacingLeft=4;spacingRight=4;overflow=hidden;rotatable=0;points=[[0,0.5],[1,0.5]];portConstraint=eastwest;" parent="80gzapR56s2BgOyHMlyC-5" vertex="1">
          <mxGeometry y="26" width="180" height="74" as="geometry" />
        </mxCell>
        <mxCell id="80gzapR56s2BgOyHMlyC-7" value="" style="line;strokeWidth=1;fillColor=none;align=left;verticalAlign=middle;spacingTop=-1;spacingLeft=3;spacingRight=3;rotatable=0;labelPosition=right;points=[];portConstraint=eastwest;" parent="80gzapR56s2BgOyHMlyC-5" vertex="1">
          <mxGeometry y="100" width="180" height="8" as="geometry" />
        </mxCell>
        <mxCell id="80gzapR56s2BgOyHMlyC-8" value="+getKind(): EntityKind&#xa;+getId(): String&#xa;+getPosition(): Point&#xa;+setPosition(Point): void&#xa;+getCurrentImage(): PImage&#xa;+nextImage(): void&#xa;+getImageIndex(): int&#xa;" style="text;strokeColor=none;fillColor=none;align=left;verticalAlign=top;spacingLeft=4;spacingRight=4;overflow=hidden;rotatable=0;points=[[0,0.5],[1,0.5]];portConstraint=eastwest;" parent="80gzapR56s2BgOyHMlyC-5" vertex="1">
          <mxGeometry y="108" width="180" height="112" as="geometry" />
        </mxCell>
        <mxCell id="80gzapR56s2BgOyHMlyC-9" value="Obstacle" style="swimlane;fontStyle=1;align=center;verticalAlign=top;childLayout=stackLayout;horizontal=1;startSize=26;horizontalStack=0;resizeParent=1;resizeParentMax=0;resizeLast=0;collapsible=1;marginBottom=0;hachureGap=4;pointerEvents=0;sketch=0;fontColor=#5AA9E6;strokeColor=#FF6392;fillColor=#FFE45E;" parent="1" vertex="1">
          <mxGeometry x="-250" y="480" width="180" height="250" as="geometry" />
        </mxCell>
        <mxCell id="80gzapR56s2BgOyHMlyC-10" value="-id: String&#xa;-position: Point&#xa;-images: List&lt;PImage&gt;&#xa;-imageIndex: int&#xa;-animationPeriod: int&#xa;&#xa;" style="text;strokeColor=none;fillColor=none;align=left;verticalAlign=top;spacingLeft=4;spacingRight=4;overflow=hidden;rotatable=0;points=[[0,0.5],[1,0.5]];portConstraint=eastwest;" parent="80gzapR56s2BgOyHMlyC-9" vertex="1">
          <mxGeometry y="26" width="180" height="84" as="geometry" />
        </mxCell>
        <mxCell id="80gzapR56s2BgOyHMlyC-11" value="" style="line;strokeWidth=1;fillColor=none;align=left;verticalAlign=middle;spacingTop=-1;spacingLeft=3;spacingRight=3;rotatable=0;labelPosition=right;points=[];portConstraint=eastwest;" parent="80gzapR56s2BgOyHMlyC-9" vertex="1">
          <mxGeometry y="110" width="180" height="8" as="geometry" />
        </mxCell>
        <mxCell id="80gzapR56s2BgOyHMlyC-12" value="+getId(): String&#xa;+getPosition(): Point&#xa;+setPosition(Point): void&#xa;+getCurrentImage(): PImage&#xa;+getAnimationPeriod(): double&#xa;+nextImage(): void&#xa;+getActionPeriod(): double&#xa;+getImageIndex():&#xa;" style="text;strokeColor=none;fillColor=none;align=left;verticalAlign=top;spacingLeft=4;spacingRight=4;overflow=hidden;rotatable=0;points=[[0,0.5],[1,0.5]];portConstraint=eastwest;" parent="80gzapR56s2BgOyHMlyC-9" vertex="1">
          <mxGeometry y="118" width="180" height="132" as="geometry" />
        </mxCell>
        <mxCell id="80gzapR56s2BgOyHMlyC-13" value="Fairy" style="swimlane;fontStyle=1;align=center;verticalAlign=top;childLayout=stackLayout;horizontal=1;startSize=26;horizontalStack=0;resizeParent=1;resizeParentMax=0;resizeLast=0;collapsible=1;marginBottom=0;hachureGap=4;pointerEvents=0;sketch=0;fontColor=#5AA9E6;strokeColor=#FF6392;fillColor=#FFE45E;" parent="1" vertex="1">
          <mxGeometry x="-400" y="1760" width="360" height="280" as="geometry" />
        </mxCell>
        <mxCell id="80gzapR56s2BgOyHMlyC-14" value="-id: String&#xa;-position: Point&#xa;-images: List&lt;PImage&gt;&#xa;-imageIndex: int&#xa;-actionPeriod: int&#xa;-animationPeriod: int&#xa;" style="text;strokeColor=none;fillColor=none;align=left;verticalAlign=top;spacingLeft=4;spacingRight=4;overflow=hidden;rotatable=0;points=[[0,0.5],[1,0.5]];portConstraint=eastwest;" parent="80gzapR56s2BgOyHMlyC-13" vertex="1">
          <mxGeometry y="26" width="360" height="94" as="geometry" />
        </mxCell>
        <mxCell id="80gzapR56s2BgOyHMlyC-15" value="" style="line;strokeWidth=1;fillColor=none;align=left;verticalAlign=middle;spacingTop=-1;spacingLeft=3;spacingRight=3;rotatable=0;labelPosition=right;points=[];portConstraint=eastwest;" parent="80gzapR56s2BgOyHMlyC-13" vertex="1">
          <mxGeometry y="120" width="360" height="8" as="geometry" />
        </mxCell>
        <mxCell id="80gzapR56s2BgOyHMlyC-16" value="+getId(): String&#xa;+getPosition(): Point&#xa;+setPosition(Point): void&#xa;+getCurrentImage(): PImage&#xa;+getAnimationPeriod(): double&#xa;+nextImage(): void&#xa;+getActionPeriod(): double&#xa;+getImageIndex(): int&#xa;+executeActivity(WorldModel, ImageStore, EventScheduler): void&#xa;+moveToHelper(WorldModel, Entity, EventScheduler): void" style="text;strokeColor=none;fillColor=none;align=left;verticalAlign=top;spacingLeft=4;spacingRight=4;overflow=hidden;rotatable=0;points=[[0,0.5],[1,0.5]];portConstraint=eastwest;" parent="80gzapR56s2BgOyHMlyC-13" vertex="1">
          <mxGeometry y="128" width="360" height="152" as="geometry" />
        </mxCell>
        <mxCell id="80gzapR56s2BgOyHMlyC-17" value="Stump" style="swimlane;fontStyle=1;align=center;verticalAlign=top;childLayout=stackLayout;horizontal=1;startSize=26;horizontalStack=0;resizeParent=1;resizeParentMax=0;resizeLast=0;collapsible=1;marginBottom=0;hachureGap=4;pointerEvents=0;sketch=0;fontColor=#5AA9E6;strokeColor=#FF6392;fillColor=#FFE45E;" parent="1" vertex="1">
          <mxGeometry x="-620" y="305" width="170" height="210" as="geometry" />
        </mxCell>
        <mxCell id="80gzapR56s2BgOyHMlyC-18" value="-id: String&#xa;-position: Point&#xa;-images: List&lt;PImage&gt;&#xa;-imageIndex: int&#xa;" style="text;strokeColor=none;fillColor=none;align=left;verticalAlign=top;spacingLeft=4;spacingRight=4;overflow=hidden;rotatable=0;points=[[0,0.5],[1,0.5]];portConstraint=eastwest;" parent="80gzapR56s2BgOyHMlyC-17" vertex="1">
          <mxGeometry y="26" width="170" height="74" as="geometry" />
        </mxCell>
        <mxCell id="80gzapR56s2BgOyHMlyC-19" value="" style="line;strokeWidth=1;fillColor=none;align=left;verticalAlign=middle;spacingTop=-1;spacingLeft=3;spacingRight=3;rotatable=0;labelPosition=right;points=[];portConstraint=eastwest;" parent="80gzapR56s2BgOyHMlyC-17" vertex="1">
          <mxGeometry y="100" width="170" height="8" as="geometry" />
        </mxCell>
        <mxCell id="80gzapR56s2BgOyHMlyC-20" value="+getId(): String&#xa;+getPosition(): Point&#xa;+setPosition(Point): void&#xa;+getCurrentImage(): PImage&#xa;+nextImage(): void&#xa;+getImageIndex(): int" style="text;strokeColor=none;fillColor=none;align=left;verticalAlign=top;spacingLeft=4;spacingRight=4;overflow=hidden;rotatable=0;points=[[0,0.5],[1,0.5]];portConstraint=eastwest;" parent="80gzapR56s2BgOyHMlyC-17" vertex="1">
          <mxGeometry y="108" width="170" height="102" as="geometry" />
        </mxCell>
        <mxCell id="80gzapR56s2BgOyHMlyC-21" value="Sapling" style="swimlane;fontStyle=1;align=center;verticalAlign=top;childLayout=stackLayout;horizontal=1;startSize=26;horizontalStack=0;resizeParent=1;resizeParentMax=0;resizeLast=0;collapsible=1;marginBottom=0;hachureGap=4;pointerEvents=0;sketch=0;fontColor=#5AA9E6;strokeColor=#FF6392;fillColor=#FFE45E;" parent="1" vertex="1">
          <mxGeometry x="320" y="1620" width="370" height="110" as="geometry" />
        </mxCell>
        <mxCell id="80gzapR56s2BgOyHMlyC-22" value="-healthLimit: int" style="text;strokeColor=none;fillColor=none;align=left;verticalAlign=top;spacingLeft=4;spacingRight=4;overflow=hidden;rotatable=0;points=[[0,0.5],[1,0.5]];portConstraint=eastwest;" parent="80gzapR56s2BgOyHMlyC-21" vertex="1">
          <mxGeometry y="26" width="370" height="34" as="geometry" />
        </mxCell>
        <mxCell id="80gzapR56s2BgOyHMlyC-23" value="" style="line;strokeWidth=1;fillColor=none;align=left;verticalAlign=middle;spacingTop=-1;spacingLeft=3;spacingRight=3;rotatable=0;labelPosition=right;points=[];portConstraint=eastwest;" parent="80gzapR56s2BgOyHMlyC-21" vertex="1">
          <mxGeometry y="60" width="370" height="8" as="geometry" />
        </mxCell>
        <mxCell id="80gzapR56s2BgOyHMlyC-24" value="+getHealthLimit(): int&#xa;+executeActivity(WorldModel, ImageStore, EventScheduler): void" style="text;strokeColor=none;fillColor=none;align=left;verticalAlign=top;spacingLeft=4;spacingRight=4;overflow=hidden;rotatable=0;points=[[0,0.5],[1,0.5]];portConstraint=eastwest;" parent="80gzapR56s2BgOyHMlyC-21" vertex="1">
          <mxGeometry y="68" width="370" height="42" as="geometry" />
        </mxCell>
        <mxCell id="80gzapR56s2BgOyHMlyC-25" value="Tree" style="swimlane;fontStyle=1;align=center;verticalAlign=top;childLayout=stackLayout;horizontal=1;startSize=26;horizontalStack=0;resizeParent=1;resizeParentMax=0;resizeLast=0;collapsible=1;marginBottom=0;hachureGap=4;pointerEvents=0;sketch=0;fontColor=#5AA9E6;strokeColor=#FF6392;fillColor=#FFE45E;" parent="1" vertex="1">
          <mxGeometry x="100" y="1640" width="160" height="70" as="geometry" />
        </mxCell>
        <mxCell id="80gzapR56s2BgOyHMlyC-27" value="" style="line;strokeWidth=1;fillColor=none;align=left;verticalAlign=middle;spacingTop=-1;spacingLeft=3;spacingRight=3;rotatable=0;labelPosition=right;points=[];portConstraint=eastwest;" parent="80gzapR56s2BgOyHMlyC-25" vertex="1">
          <mxGeometry y="26" width="160" height="44" as="geometry" />
        </mxCell>
        <mxCell id="80gzapR56s2BgOyHMlyC-29" value="DudeFull" style="swimlane;fontStyle=1;align=center;verticalAlign=top;childLayout=stackLayout;horizontal=1;startSize=26;horizontalStack=0;resizeParent=1;resizeParentMax=0;resizeLast=0;collapsible=1;marginBottom=0;hachureGap=4;pointerEvents=0;sketch=0;fontColor=#5AA9E6;strokeColor=#FF6392;fillColor=#FFE45E;" parent="1" vertex="1">
          <mxGeometry x="-820" y="1860" width="370" height="120" as="geometry" />
        </mxCell>
        <mxCell id="80gzapR56s2BgOyHMlyC-31" value="" style="line;strokeWidth=1;fillColor=none;align=left;verticalAlign=middle;spacingTop=-1;spacingLeft=3;spacingRight=3;rotatable=0;labelPosition=right;points=[];portConstraint=eastwest;" parent="80gzapR56s2BgOyHMlyC-29" vertex="1">
          <mxGeometry y="26" width="370" height="54" as="geometry" />
        </mxCell>
        <mxCell id="80gzapR56s2BgOyHMlyC-32" value="+executeActivity(WorldModel, ImageStore, EventScheduler): void&#xa;+moveToHelper(WorldModel, Entity, EventScheduler): void" style="text;strokeColor=none;fillColor=none;align=left;verticalAlign=top;spacingLeft=4;spacingRight=4;overflow=hidden;rotatable=0;points=[[0,0.5],[1,0.5]];portConstraint=eastwest;" parent="80gzapR56s2BgOyHMlyC-29" vertex="1">
          <mxGeometry y="80" width="370" height="40" as="geometry" />
        </mxCell>
        <mxCell id="80gzapR56s2BgOyHMlyC-33" value="DudeNotFull" style="swimlane;fontStyle=1;align=center;verticalAlign=top;childLayout=stackLayout;horizontal=1;startSize=26;horizontalStack=0;resizeParent=1;resizeParentMax=0;resizeLast=0;collapsible=1;marginBottom=0;hachureGap=4;pointerEvents=0;sketch=0;fontColor=#5AA9E6;strokeColor=#FF6392;fillColor=#FFE45E;" parent="1" vertex="1">
          <mxGeometry x="-1540" y="1550" width="370" height="120" as="geometry" />
        </mxCell>
        <mxCell id="80gzapR56s2BgOyHMlyC-34" value="-resourceCount:" style="text;strokeColor=none;fillColor=none;align=left;verticalAlign=top;spacingLeft=4;spacingRight=4;overflow=hidden;rotatable=0;points=[[0,0.5],[1,0.5]];portConstraint=eastwest;" parent="80gzapR56s2BgOyHMlyC-33" vertex="1">
          <mxGeometry y="26" width="370" height="34" as="geometry" />
        </mxCell>
        <mxCell id="80gzapR56s2BgOyHMlyC-35" value="" style="line;strokeWidth=1;fillColor=none;align=left;verticalAlign=middle;spacingTop=-1;spacingLeft=3;spacingRight=3;rotatable=0;labelPosition=right;points=[];portConstraint=eastwest;" parent="80gzapR56s2BgOyHMlyC-33" vertex="1">
          <mxGeometry y="60" width="370" height="8" as="geometry" />
        </mxCell>
        <mxCell id="80gzapR56s2BgOyHMlyC-36" value="+executeActivity(WorldModel, ImageStore, EventScheduler): void&#xa;+transform(WorldModel, ImageStore, EventScheduler): boolean" style="text;strokeColor=none;fillColor=none;align=left;verticalAlign=top;spacingLeft=4;spacingRight=4;overflow=hidden;rotatable=0;points=[[0,0.5],[1,0.5]];portConstraint=eastwest;" parent="80gzapR56s2BgOyHMlyC-33" vertex="1">
          <mxGeometry y="68" width="370" height="52" as="geometry" />
        </mxCell>
        <mxCell id="EepJL3Q59dCYrceCNZFe-1" value="EntityActivity &lt;&lt;interface&gt;&gt;" style="swimlane;fontStyle=1;align=center;verticalAlign=top;childLayout=stackLayout;horizontal=1;startSize=26;horizontalStack=0;resizeParent=1;resizeParentMax=0;resizeLast=0;collapsible=1;marginBottom=0;hachureGap=4;pointerEvents=0;sketch=0;fontColor=#5AA9E6;strokeColor=#FF6392;fillColor=#FFE45E;" parent="1" vertex="1">
          <mxGeometry x="-425" y="1160" width="370" height="130" as="geometry" />
        </mxCell>
        <mxCell id="EepJL3Q59dCYrceCNZFe-2" value="&#xa;" style="text;strokeColor=none;fillColor=none;align=left;verticalAlign=top;spacingLeft=4;spacingRight=4;overflow=hidden;rotatable=0;points=[[0,0.5],[1,0.5]];portConstraint=eastwest;" parent="EepJL3Q59dCYrceCNZFe-1" vertex="1">
          <mxGeometry y="26" width="370" height="64" as="geometry" />
        </mxCell>
        <mxCell id="EepJL3Q59dCYrceCNZFe-3" value="" style="line;strokeWidth=1;fillColor=none;align=left;verticalAlign=middle;spacingTop=-1;spacingLeft=3;spacingRight=3;rotatable=0;labelPosition=right;points=[];portConstraint=eastwest;" parent="EepJL3Q59dCYrceCNZFe-1" vertex="1">
          <mxGeometry y="90" width="370" height="8" as="geometry" />
        </mxCell>
        <mxCell id="EepJL3Q59dCYrceCNZFe-4" value="+executeActivity(WorldModel, ImageStore, EventScheduler): void" style="text;strokeColor=none;fillColor=none;align=left;verticalAlign=top;spacingLeft=4;spacingRight=4;overflow=hidden;rotatable=0;points=[[0,0.5],[1,0.5]];portConstraint=eastwest;" parent="EepJL3Q59dCYrceCNZFe-1" vertex="1">
          <mxGeometry y="98" width="370" height="32" as="geometry" />
        </mxCell>
        <mxCell id="EepJL3Q59dCYrceCNZFe-6" value="EntityAnimation &lt;&lt;interface&gt;&gt;" style="swimlane;fontStyle=1;align=center;verticalAlign=top;childLayout=stackLayout;horizontal=1;startSize=26;horizontalStack=0;resizeParent=1;resizeParentMax=0;resizeLast=0;collapsible=1;marginBottom=0;hachureGap=4;pointerEvents=0;sketch=0;fontColor=#5AA9E6;strokeColor=#FF6392;fillColor=#FFE45E;" parent="1" vertex="1">
          <mxGeometry x="-460" y="860" width="430" height="160" as="geometry" />
        </mxCell>
        <mxCell id="EepJL3Q59dCYrceCNZFe-8" value="" style="line;strokeWidth=1;fillColor=none;align=left;verticalAlign=middle;spacingTop=-1;spacingLeft=3;spacingRight=3;rotatable=0;labelPosition=right;points=[];portConstraint=eastwest;" parent="EepJL3Q59dCYrceCNZFe-6" vertex="1">
          <mxGeometry y="26" width="430" height="54" as="geometry" />
        </mxCell>
        <mxCell id="EepJL3Q59dCYrceCNZFe-9" value="+getAnimationPeriod(): double&#xa;+getActionPeriod(): double&#xa;+scheduleActions(EventScheduler, WorldModel, ImageStore): void &lt;&lt;default&gt;&gt;" style="text;strokeColor=none;fillColor=none;align=left;verticalAlign=top;spacingLeft=4;spacingRight=4;overflow=hidden;rotatable=0;points=[[0,0.5],[1,0.5]];portConstraint=eastwest;" parent="EepJL3Q59dCYrceCNZFe-6" vertex="1">
          <mxGeometry y="80" width="430" height="80" as="geometry" />
        </mxCell>
        <mxCell id="EepJL3Q59dCYrceCNZFe-10" value="" style="endArrow=classic;html=1;rounded=0;entryX=1.014;entryY=0.373;entryDx=0;entryDy=0;entryPerimeter=0;exitX=0.454;exitY=0.004;exitDx=0;exitDy=0;exitPerimeter=0;" parent="1" source="EepJL3Q59dCYrceCNZFe-6" target="80gzapR56s2BgOyHMlyC-4" edge="1">
          <mxGeometry width="50" height="50" relative="1" as="geometry">
            <mxPoint x="-990" y="930" as="sourcePoint" />
            <mxPoint x="-940" y="880" as="targetPoint" />
          </mxGeometry>
        </mxCell>
        <mxCell id="EepJL3Q59dCYrceCNZFe-11" value="Dude &lt;&lt;abstract&gt;&gt;" style="swimlane;fontStyle=1;align=center;verticalAlign=top;childLayout=stackLayout;horizontal=1;startSize=26;horizontalStack=0;resizeParent=1;resizeParentMax=0;resizeLast=0;collapsible=1;marginBottom=0;hachureGap=4;pointerEvents=0;sketch=0;fontColor=#5AA9E6;strokeColor=#FF6392;fillColor=#FFE45E;" parent="1" vertex="1">
          <mxGeometry x="-1040" y="1400" width="440" height="340" as="geometry">
            <mxRectangle x="-1660" y="1800" width="180" height="30" as="alternateBounds" />
          </mxGeometry>
        </mxCell>
        <mxCell id="EepJL3Q59dCYrceCNZFe-12" value="-id: String&#xa;-position: Point&#xa;-images: List&lt;PImge&gt;&#xa;-imageIndex: int&#xa;-resourceLimit: int&#xa;-actionPeriod: double&#xa;-animationPeriod: double" style="text;strokeColor=none;fillColor=none;align=left;verticalAlign=top;spacingLeft=4;spacingRight=4;overflow=hidden;rotatable=0;points=[[0,0.5],[1,0.5]];portConstraint=eastwest;" parent="EepJL3Q59dCYrceCNZFe-11" vertex="1">
          <mxGeometry y="26" width="440" height="114" as="geometry" />
        </mxCell>
        <mxCell id="EepJL3Q59dCYrceCNZFe-13" value="" style="line;strokeWidth=1;fillColor=none;align=left;verticalAlign=middle;spacingTop=-1;spacingLeft=3;spacingRight=3;rotatable=0;labelPosition=right;points=[];portConstraint=eastwest;" parent="EepJL3Q59dCYrceCNZFe-11" vertex="1">
          <mxGeometry y="140" width="440" height="8" as="geometry" />
        </mxCell>
        <mxCell id="EepJL3Q59dCYrceCNZFe-14" value="+getId(): String&#xa;+getPosition(): Point&#xa;+setPosition(Point): void&#xa;+getCurrentImage(): PImage&#xa;+getAnimationPeriod(): double&#xa;+nextImage(): void&#xa;+getActionPeriod(): double&#xa;+getImageIndex(): int&#xa;+getResourceLimit(): int&#xa;+executeActivity(WorldModel, EventScheduler, ImageStore): void &lt;&lt;abstract&gt;&gt;&#xa;+transform(WorldModel, EventScheduler, ImageStore): boolean&#xa;+moveToHelper(WorldModel, Entity, EventScheduler): void &lt;&lt;abstract&gt;&gt;" style="text;strokeColor=none;fillColor=none;align=left;verticalAlign=top;spacingLeft=4;spacingRight=4;overflow=hidden;rotatable=0;points=[[0,0.5],[1,0.5]];portConstraint=eastwest;" parent="EepJL3Q59dCYrceCNZFe-11" vertex="1">
          <mxGeometry y="148" width="440" height="192" as="geometry" />
        </mxCell>
        <mxCell id="EepJL3Q59dCYrceCNZFe-15" value="MovableEntity &lt;&lt;interface&gt;&gt;" style="swimlane;fontStyle=1;align=center;verticalAlign=top;childLayout=stackLayout;horizontal=1;startSize=26;horizontalStack=0;resizeParent=1;resizeParentMax=0;resizeLast=0;collapsible=1;marginBottom=0;hachureGap=4;pointerEvents=0;sketch=0;fontColor=#5AA9E6;strokeColor=#FF6392;fillColor=#FFE45E;" parent="1" vertex="1">
          <mxGeometry x="-460" y="1470" width="370" height="120" as="geometry" />
        </mxCell>
        <mxCell id="EepJL3Q59dCYrceCNZFe-16" value="&#xa;" style="text;strokeColor=none;fillColor=none;align=left;verticalAlign=top;spacingLeft=4;spacingRight=4;overflow=hidden;rotatable=0;points=[[0,0.5],[1,0.5]];portConstraint=eastwest;" parent="EepJL3Q59dCYrceCNZFe-15" vertex="1">
          <mxGeometry y="26" width="370" height="34" as="geometry" />
        </mxCell>
        <mxCell id="EepJL3Q59dCYrceCNZFe-17" value="" style="line;strokeWidth=1;fillColor=none;align=left;verticalAlign=middle;spacingTop=-1;spacingLeft=3;spacingRight=3;rotatable=0;labelPosition=right;points=[];portConstraint=eastwest;" parent="EepJL3Q59dCYrceCNZFe-15" vertex="1">
          <mxGeometry y="60" width="370" height="8" as="geometry" />
        </mxCell>
        <mxCell id="EepJL3Q59dCYrceCNZFe-18" value="+nextPosition(WorldModel, Point): Point &lt;&lt;default&gt;&gt;&#xa;+moveTo(WorldModel, Entity, EventScheduler): boolean &lt;&lt;default&gt;&gt;&#xa;+moveToHelper(WorldModel, Entity, EventScheduler): void" style="text;strokeColor=none;fillColor=none;align=left;verticalAlign=top;spacingLeft=4;spacingRight=4;overflow=hidden;rotatable=0;points=[[0,0.5],[1,0.5]];portConstraint=eastwest;" parent="EepJL3Q59dCYrceCNZFe-15" vertex="1">
          <mxGeometry y="68" width="370" height="52" as="geometry" />
        </mxCell>
        <mxCell id="EepJL3Q59dCYrceCNZFe-27" value="Plant &lt;&lt;abstract&gt;&gt;" style="swimlane;fontStyle=1;align=center;verticalAlign=top;childLayout=stackLayout;horizontal=1;startSize=26;horizontalStack=0;resizeParent=1;resizeParentMax=0;resizeLast=0;collapsible=1;marginBottom=0;hachureGap=4;pointerEvents=0;sketch=0;fontColor=#5AA9E6;strokeColor=#FF6392;fillColor=#FFE45E;" parent="1" vertex="1">
          <mxGeometry x="60" y="1080" width="380" height="440" as="geometry" />
        </mxCell>
        <mxCell id="EepJL3Q59dCYrceCNZFe-28" value="-TREE_ANIMATION_MAX: double &lt;&lt;final&gt;&gt;&#xa;-TREE_ANIMATION_MIN: double &lt;&lt;final&gt;&gt;&#xa;-TREE_ACTION_MAX: double &lt;&lt;final&gt;&gt;&#xa;-TREE_ACTION_MIN: double &lt;&lt;final&gt;&gt;&#xa;-TREE_HEALTH_MAX: int &lt;&lt;final&gt;&gt;&#xa;-TREE_HEALTH_MIN: int &lt;&lt;final&gt;&gt;&#xa;&#xa;-id: String&#xa;-position: Point&#xa;-images: List&lt;PImage&gt;&#xa;-imageIndex: int&#xa;-actionPeriod: double&#xa;-animationPeriod: double&#xa;-health: int" style="text;strokeColor=none;fillColor=none;align=left;verticalAlign=top;spacingLeft=4;spacingRight=4;overflow=hidden;rotatable=0;points=[[0,0.5],[1,0.5]];portConstraint=eastwest;" parent="EepJL3Q59dCYrceCNZFe-27" vertex="1">
          <mxGeometry y="26" width="380" height="204" as="geometry" />
        </mxCell>
        <mxCell id="EepJL3Q59dCYrceCNZFe-29" value="" style="line;strokeWidth=1;fillColor=none;align=left;verticalAlign=middle;spacingTop=-1;spacingLeft=3;spacingRight=3;rotatable=0;labelPosition=right;points=[];portConstraint=eastwest;" parent="EepJL3Q59dCYrceCNZFe-27" vertex="1">
          <mxGeometry y="230" width="380" height="8" as="geometry" />
        </mxCell>
        <mxCell id="EepJL3Q59dCYrceCNZFe-30" value="+subHealth(): void&#xa;+addHealth(): void&#xa;+getHealth(): int&#xa;+getId(): String&#xa;+getPosition(): Point&#xa;+setPosition(Point): void&#xa;+getCurrentImage(): PImage&#xa;+getAnimationPeriod(): double&#xa;+nextImage(): void&#xa;+getActionPeriod(): double&#xa;+getImageIndex(): int&#xa;+executeActivity(WorldModel, ImageStore, EventScheduler): void&#xa;-transformPlant(WorldModel, EventScheduler, ImageStore): boolean" style="text;strokeColor=none;fillColor=none;align=left;verticalAlign=top;spacingLeft=4;spacingRight=4;overflow=hidden;rotatable=0;points=[[0,0.5],[1,0.5]];portConstraint=eastwest;" parent="EepJL3Q59dCYrceCNZFe-27" vertex="1">
          <mxGeometry y="238" width="380" height="202" as="geometry" />
        </mxCell>
        <mxCell id="EepJL3Q59dCYrceCNZFe-44" value="" style="endArrow=classic;html=1;rounded=0;entryX=0.551;entryY=1.05;entryDx=0;entryDy=0;entryPerimeter=0;exitX=0.535;exitY=-0.04;exitDx=0;exitDy=0;exitPerimeter=0;" parent="1" source="EepJL3Q59dCYrceCNZFe-1" target="EepJL3Q59dCYrceCNZFe-9" edge="1">
          <mxGeometry width="50" height="50" relative="1" as="geometry">
            <mxPoint x="-190" y="1290" as="sourcePoint" />
            <mxPoint x="-140" y="1240" as="targetPoint" />
          </mxGeometry>
        </mxCell>
        <mxCell id="EepJL3Q59dCYrceCNZFe-45" value="" style="endArrow=classic;html=1;rounded=0;entryX=0.347;entryY=1.027;entryDx=0;entryDy=0;entryPerimeter=0;exitX=0.404;exitY=-0.033;exitDx=0;exitDy=0;exitPerimeter=0;" parent="1" source="EepJL3Q59dCYrceCNZFe-15" target="EepJL3Q59dCYrceCNZFe-4" edge="1">
          <mxGeometry width="50" height="50" relative="1" as="geometry">
            <mxPoint x="-400" y="1540" as="sourcePoint" />
            <mxPoint x="-350" y="1490" as="targetPoint" />
          </mxGeometry>
        </mxCell>
        <mxCell id="EepJL3Q59dCYrceCNZFe-48" value="" style="endArrow=classic;html=1;rounded=0;exitX=1;exitY=0.5;exitDx=0;exitDy=0;entryX=-0.011;entryY=0.236;entryDx=0;entryDy=0;entryPerimeter=0;" parent="1" source="80gzapR56s2BgOyHMlyC-34" target="EepJL3Q59dCYrceCNZFe-14" edge="1">
          <mxGeometry width="50" height="50" relative="1" as="geometry">
            <mxPoint x="-1040" y="1750" as="sourcePoint" />
            <mxPoint x="-990" y="1700" as="targetPoint" />
          </mxGeometry>
        </mxCell>
        <mxCell id="EepJL3Q59dCYrceCNZFe-50" value="" style="endArrow=classic;html=1;rounded=0;exitX=0.281;exitY=0.002;exitDx=0;exitDy=0;exitPerimeter=0;entryX=0.76;entryY=1.012;entryDx=0;entryDy=0;entryPerimeter=0;" parent="1" source="80gzapR56s2BgOyHMlyC-29" target="EepJL3Q59dCYrceCNZFe-14" edge="1">
          <mxGeometry width="50" height="50" relative="1" as="geometry">
            <mxPoint x="-800" y="1740" as="sourcePoint" />
            <mxPoint x="-750" y="1690" as="targetPoint" />
          </mxGeometry>
        </mxCell>
        <mxCell id="EepJL3Q59dCYrceCNZFe-53" value="" style="endArrow=classic;html=1;rounded=0;exitX=0.5;exitY=0;exitDx=0;exitDy=0;entryX=0.48;entryY=1;entryDx=0;entryDy=0;entryPerimeter=0;" parent="1" source="80gzapR56s2BgOyHMlyC-25" target="EepJL3Q59dCYrceCNZFe-30" edge="1">
          <mxGeometry width="50" height="50" relative="1" as="geometry">
            <mxPoint x="500" y="1540" as="sourcePoint" />
            <mxPoint x="550" y="1490" as="targetPoint" />
          </mxGeometry>
        </mxCell>
        <mxCell id="EepJL3Q59dCYrceCNZFe-54" value="" style="endArrow=classic;html=1;rounded=0;exitX=0.233;exitY=-0.038;exitDx=0;exitDy=0;exitPerimeter=0;entryX=0.813;entryY=1.019;entryDx=0;entryDy=0;entryPerimeter=0;" parent="1" source="80gzapR56s2BgOyHMlyC-21" target="EepJL3Q59dCYrceCNZFe-30" edge="1">
          <mxGeometry width="50" height="50" relative="1" as="geometry">
            <mxPoint x="510" y="1540" as="sourcePoint" />
            <mxPoint x="550" y="1490" as="targetPoint" />
          </mxGeometry>
        </mxCell>
        <mxCell id="_pNW8iZo-HE9_BzMMocK-1" value="" style="html=1;labelBackgroundColor=#ffffff;startArrow=none;startFill=0;startSize=6;endArrow=classic;endFill=1;endSize=6;jettySize=auto;orthogonalLoop=1;strokeWidth=1;dashed=1;fontSize=14;rounded=0;exitX=1.001;exitY=0.83;exitDx=0;exitDy=0;exitPerimeter=0;entryX=-0.005;entryY=0.333;entryDx=0;entryDy=0;entryPerimeter=0;" edge="1" parent="1" source="EepJL3Q59dCYrceCNZFe-12" target="EepJL3Q59dCYrceCNZFe-16">
          <mxGeometry width="60" height="60" relative="1" as="geometry">
            <mxPoint x="-510" y="1540" as="sourcePoint" />
            <mxPoint x="-450" y="1480" as="targetPoint" />
          </mxGeometry>
        </mxCell>
        <mxCell id="_pNW8iZo-HE9_BzMMocK-2" value="" style="html=1;labelBackgroundColor=#ffffff;startArrow=none;startFill=0;startSize=6;endArrow=classic;endFill=1;endSize=6;jettySize=auto;orthogonalLoop=1;strokeWidth=1;dashed=1;fontSize=14;rounded=0;exitX=0.5;exitY=0;exitDx=0;exitDy=0;entryX=0.592;entryY=1.064;entryDx=0;entryDy=0;entryPerimeter=0;" edge="1" parent="1" source="80gzapR56s2BgOyHMlyC-13" target="EepJL3Q59dCYrceCNZFe-18">
          <mxGeometry width="60" height="60" relative="1" as="geometry">
            <mxPoint x="-220" y="1620" as="sourcePoint" />
            <mxPoint x="-160" y="1560" as="targetPoint" />
          </mxGeometry>
        </mxCell>
        <mxCell id="_pNW8iZo-HE9_BzMMocK-3" value="" style="html=1;labelBackgroundColor=#ffffff;startArrow=none;startFill=0;startSize=6;endArrow=classic;endFill=1;endSize=6;jettySize=auto;orthogonalLoop=1;strokeWidth=1;dashed=1;fontSize=14;rounded=0;exitX=-0.006;exitY=0.624;exitDx=0;exitDy=0;exitPerimeter=0;entryX=1.004;entryY=0.396;entryDx=0;entryDy=0;entryPerimeter=0;" edge="1" parent="1" source="EepJL3Q59dCYrceCNZFe-28" target="EepJL3Q59dCYrceCNZFe-2">
          <mxGeometry width="60" height="60" relative="1" as="geometry">
            <mxPoint x="60" y="1280" as="sourcePoint" />
            <mxPoint x="120" y="1220" as="targetPoint" />
          </mxGeometry>
        </mxCell>
        <mxCell id="_pNW8iZo-HE9_BzMMocK-4" value="" style="html=1;labelBackgroundColor=#ffffff;startArrow=none;startFill=0;startSize=6;endArrow=classic;endFill=1;endSize=6;jettySize=auto;orthogonalLoop=1;strokeWidth=1;dashed=1;fontSize=14;rounded=0;entryX=0.75;entryY=0;entryDx=0;entryDy=0;exitX=0.513;exitY=1.01;exitDx=0;exitDy=0;exitPerimeter=0;" edge="1" parent="1" source="80gzapR56s2BgOyHMlyC-12" target="EepJL3Q59dCYrceCNZFe-6">
          <mxGeometry width="60" height="60" relative="1" as="geometry">
            <mxPoint x="-150" y="790" as="sourcePoint" />
            <mxPoint x="-90" y="730" as="targetPoint" />
          </mxGeometry>
        </mxCell>
        <mxCell id="_pNW8iZo-HE9_BzMMocK-5" value="" style="html=1;labelBackgroundColor=#ffffff;startArrow=none;startFill=0;startSize=6;endArrow=classic;endFill=1;endSize=6;jettySize=auto;orthogonalLoop=1;strokeWidth=1;dashed=1;fontSize=14;rounded=0;exitX=1.002;exitY=0.359;exitDx=0;exitDy=0;exitPerimeter=0;entryX=0.275;entryY=0;entryDx=0;entryDy=0;entryPerimeter=0;" edge="1" parent="1" source="80gzapR56s2BgOyHMlyC-8" target="80gzapR56s2BgOyHMlyC-1">
          <mxGeometry width="60" height="60" relative="1" as="geometry">
            <mxPoint x="-570" y="590" as="sourcePoint" />
            <mxPoint x="-510" y="530" as="targetPoint" />
          </mxGeometry>
        </mxCell>
        <mxCell id="_pNW8iZo-HE9_BzMMocK-6" value="" style="html=1;labelBackgroundColor=#ffffff;startArrow=none;startFill=0;startSize=6;endArrow=classic;endFill=1;endSize=6;jettySize=auto;orthogonalLoop=1;strokeWidth=1;dashed=1;fontSize=14;rounded=0;exitX=0.5;exitY=1;exitDx=0;exitDy=0;entryX=0.696;entryY=-0.026;entryDx=0;entryDy=0;entryPerimeter=0;" edge="1" parent="1" source="80gzapR56s2BgOyHMlyC-17" target="80gzapR56s2BgOyHMlyC-1">
          <mxGeometry width="60" height="60" relative="1" as="geometry">
            <mxPoint x="-480" y="570" as="sourcePoint" />
            <mxPoint x="-420" y="510" as="targetPoint" />
          </mxGeometry>
        </mxCell>
        <mxCell id="_pNW8iZo-HE9_BzMMocK-7" value="" style="html=1;labelBackgroundColor=#ffffff;startArrow=none;startFill=0;startSize=6;endArrow=classic;endFill=1;endSize=6;jettySize=auto;orthogonalLoop=1;strokeWidth=1;dashed=1;fontSize=14;rounded=0;exitX=0.357;exitY=0;exitDx=0;exitDy=0;exitPerimeter=0;entryX=0.717;entryY=1.042;entryDx=0;entryDy=0;entryPerimeter=0;" edge="1" parent="1" source="klKYqqr75x3pO2ADz1AA-9" target="klKYqqr75x3pO2ADz1AA-4">
          <mxGeometry width="60" height="60" relative="1" as="geometry">
            <mxPoint x="700" y="540" as="sourcePoint" />
            <mxPoint x="760" y="480" as="targetPoint" />
          </mxGeometry>
        </mxCell>
        <mxCell id="_pNW8iZo-HE9_BzMMocK-8" value="" style="html=1;labelBackgroundColor=#ffffff;startArrow=none;startFill=0;startSize=6;endArrow=classic;endFill=1;endSize=6;jettySize=auto;orthogonalLoop=1;strokeWidth=1;dashed=1;fontSize=14;rounded=0;exitX=0.674;exitY=-0.021;exitDx=0;exitDy=0;exitPerimeter=0;entryX=0.292;entryY=1.042;entryDx=0;entryDy=0;entryPerimeter=0;" edge="1" parent="1" source="klKYqqr75x3pO2ADz1AA-5" target="klKYqqr75x3pO2ADz1AA-4">
          <mxGeometry width="60" height="60" relative="1" as="geometry">
            <mxPoint x="590" y="550" as="sourcePoint" />
            <mxPoint x="650" y="490" as="targetPoint" />
          </mxGeometry>
        </mxCell>
      </root>
    </mxGraphModel>
  </diagram>
</mxfile>
